<svg xmlns="http://www.w3.org/2000/svg" viewBox="0 0 337.28 96.54"><defs><style>.cls-1{fill:#fff;}</style></defs><g id="Layer_2" data-name="Layer 2"><g id="Layer_1-2" data-name="Layer 1"><path class="cls-1" d="M131,0H78.5V89.79H88.68V10.18H131A6.87,6.87,0,0,1,137.89,17V44.73A6.87,6.87,0,0,1,131,51.59H99.19V61.77H131a17.05,17.05,0,0,0,17-17V17A17.05,17.05,0,0,0,131,0Z"/><path class="cls-1" d="M285.11,10.18h52.17V0H279.77a10.65,10.65,0,0,0-10.65,10.65V25.74a10.67,10.67,0,0,0,10.65,10.65l46.54,0,0,17.53H256.81V18.27A16.57,16.57,0,0,0,240.24,1.7H159.11V64.41H169.3V11.88h24.11a9.25,9.25,0,0,1,9.25,9.24h0V65.63h10.18V11.88h27.4a6.39,6.39,0,0,1,6.39,6.39V64.12h79.66a10.2,10.2,0,0,0,10.2-10.2V36.41a10.2,10.2,0,0,0-10.2-10.2H285.11a5.81,5.81,0,0,1-5.81-5.81V16A5.83,5.83,0,0,1,285.11,10.18Z"/><path class="cls-1" d="M50,0H16A16,16,0,0,0,0,16V49.42a16,16,0,0,0,16,16H50a16,16,0,0,0,16-16v-9H55.73v9A5.79,5.79,0,0,1,50,55.2H16a5.78,5.78,0,0,1-5.78-5.78V16A5.78,5.78,0,0,1,16,10.18H50A5.79,5.79,0,0,1,55.73,16v9.46H65.91V16A16,16,0,0,0,50,0Z"/><path class="cls-1" d="M23.78,32.69A9.18,9.18,0,1,0,33,23.51,9.17,9.17,0,0,0,23.78,32.69Z"/><path class="cls-1" d="M100.37,90.79a1.29,1.29,0,0,1,1.3-1.38A1.27,1.27,0,0,1,103,90.79a1.3,1.3,0,1,1-2.59,0Z"/><path class="cls-1" d="M104.78,90.79a1.29,1.29,0,0,1,1.3-1.38,1.38,1.38,0,0,1,0,2.75A1.29,1.29,0,0,1,104.78,90.79Z"/><path class="cls-1" d="M109.19,90.79a1.29,1.29,0,0,1,1.3-1.38,1.38,1.38,0,0,1,0,2.75A1.29,1.29,0,0,1,109.19,90.79Z"/><path class="cls-1" d="M114.08,78a20.09,20.09,0,0,1,3.57-.28,5.86,5.86,0,0,1,4,1.16,3.85,3.85,0,0,1,1.27,3,4.15,4.15,0,0,1-1.12,3,5.87,5.87,0,0,1-4.32,1.54,5.75,5.75,0,0,1-1.44-.13v5.6h-1.93ZM116,84.76a5.15,5.15,0,0,0,1.47.16c2.16,0,3.47-1.07,3.47-3s-1.29-2.71-3.26-2.71a8.44,8.44,0,0,0-1.68.14Z"/><path class="cls-1" d="M133.92,86.77c0,3.74-2.6,5.39-5,5.39-2.76,0-4.9-2-4.9-5.21,0-3.38,2.22-5.37,5.06-5.37S133.92,83.69,133.92,86.77Zm-7.95.12c0,2.17,1.22,3.81,3,3.81s3-1.61,3-3.86c0-1.69-.84-3.8-3-3.8S126,85,126,86.89Z"/><path class="cls-1" d="M136.91,81.81l1.31,5c.28,1.12.54,2.18.74,3.23h0c.22-1,.55-2.13.89-3.22l1.6-5.06h1.63l1.52,5c.36,1.19.65,2.27.88,3.31h.05c.18-1,.45-2.11.77-3.3l1.39-5h1.93l-3.26,10.12h-1.78l-1.48-4.72a29.21,29.21,0,0,1-.88-3.31h0a31.48,31.48,0,0,1-.9,3.33l-1.57,4.7H138l-3-10.12Z"/><path class="cls-1" d="M152.43,87.26a3.15,3.15,0,0,0,3.41,3.37,6.93,6.93,0,0,0,2.79-.51L159,91.5a8.26,8.26,0,0,1-3.4.65,4.73,4.73,0,0,1-5-5.11c0-3,1.79-5.46,4.79-5.46,3.3,0,4.2,2.87,4.2,4.79a4.66,4.66,0,0,1-.07.89Zm5.23-1.4c0-1.12-.46-2.89-2.47-2.89a2.94,2.94,0,0,0-2.74,2.89Z"/><path class="cls-1" d="M161.78,85c0-1.22,0-2.24-.08-3.17h1.71l.07,2h.07a3.06,3.06,0,0,1,2.81-2.21,2.12,2.12,0,0,1,.52.06v1.83a3,3,0,0,0-.64,0,2.52,2.52,0,0,0-2.44,2.28,5.62,5.62,0,0,0-.07.85v5.38h-1.95Z"/><path class="cls-1" d="M169.67,87.26a3.14,3.14,0,0,0,3.4,3.37,6.94,6.94,0,0,0,2.8-.51l.34,1.38a8.28,8.28,0,0,1-3.41.65,4.73,4.73,0,0,1-5-5.11c0-3,1.79-5.46,4.79-5.46,3.3,0,4.19,2.87,4.19,4.79a4.84,4.84,0,0,1-.06.89Zm5.23-1.4c0-1.12-.46-2.89-2.47-2.89a2.93,2.93,0,0,0-2.74,2.89Z"/><path class="cls-1" d="M187.85,77.09V89.28c0,.92,0,2,.08,2.65h-1.74l-.09-1.73h0a3.7,3.7,0,0,1-3.41,2c-2.44,0-4.34-2.07-4.34-5.15,0-3.38,2.09-5.43,4.54-5.43a3.36,3.36,0,0,1,3,1.5h0v-6Zm-1.95,8.85a3.91,3.91,0,0,0-.07-.76,2.64,2.64,0,0,0-2.59-2.07c-1.86,0-3,1.64-3,3.8s1,3.68,2.93,3.68a2.7,2.7,0,0,0,2.61-2.15,2.78,2.78,0,0,0,.09-.78Z"/><path class="cls-1" d="M195.17,91.93c.05-.7.09-1.73.09-2.65V77.09h1.94V83.4h0a3.73,3.73,0,0,1,3.42-1.82c2.5,0,4.27,2.08,4.26,5.15,0,3.63-2.3,5.43-4.56,5.43A3.64,3.64,0,0,1,197,90.29H197l-.09,1.64Zm2-4.08a2.84,2.84,0,0,0,.08.66A2.74,2.74,0,0,0,200,90.6c1.89,0,3-1.52,3-3.79,0-2-1-3.69-2.95-3.69a2.85,2.85,0,0,0-2.7,2.2,3.23,3.23,0,0,0-.1.74Z"/><path class="cls-1" d="M207.88,81.81,210,87.7c.23.66.47,1.45.64,2h.05c.18-.59.39-1.37.63-2.09l1.93-5.85h2.08L212.63,89c-1.33,3.52-2.23,5.28-3.48,6.37a5.17,5.17,0,0,1-2.32,1.2l-.48-1.64a4.69,4.69,0,0,0,1.59-.87,5.56,5.56,0,0,0,1.52-2,1.14,1.14,0,0,0,.15-.44,1.26,1.26,0,0,0-.13-.48l-3.73-9.32Z"/><path class="cls-1" d="M223.43,77.85V91.93h-2V77.85Z"/><path class="cls-1" d="M226.71,84.59c0-1.07,0-1.93-.09-2.78h1.73l.1,1.64h.05a3.74,3.74,0,0,1,3.33-1.87c1.45,0,3.57.89,3.57,4.32v6h-2V86.11c0-1.6-.6-2.93-2.27-2.93a2.56,2.56,0,0,0-2.4,1.83,2.66,2.66,0,0,0-.12.84v6.08h-1.95Z"/><path class="cls-1" d="M238.37,84.59c0-1.07,0-1.93-.09-2.78H240l.1,1.64h0a3.74,3.74,0,0,1,3.33-1.87c1.45,0,3.57.89,3.57,4.32v6h-1.95V86.11c0-1.6-.6-2.93-2.27-2.93a2.56,2.56,0,0,0-2.4,1.83,2.66,2.66,0,0,0-.12.84v6.08h-1.95Z"/><path class="cls-1" d="M259.25,86.77c0,3.74-2.6,5.39-5.05,5.39-2.76,0-4.9-2-4.9-5.21,0-3.38,2.22-5.37,5.06-5.37S259.25,83.69,259.25,86.77Zm-7.95.12c0,2.17,1.22,3.81,3,3.81s3-1.61,3-3.86c0-1.69-.84-3.8-2.95-3.8S251.3,85,251.3,86.89Z"/><path class="cls-1" d="M262.25,81.81l1.93,5.59c.33.93.58,1.76.8,2.6H265c.22-.84.5-1.68.82-2.6l1.92-5.59h2l-4,10.12H264l-3.84-10.12Z"/><path class="cls-1" d="M277.09,91.93l-.17-1.26h-.05a3.77,3.77,0,0,1-3.08,1.49,2.91,2.91,0,0,1-3.1-2.92c0-2.47,2.18-3.81,6.06-3.78v-.21A2,2,0,0,0,274.49,83a5.07,5.07,0,0,0-2.65.75l-.43-1.29a6.46,6.46,0,0,1,3.39-.89c3.11,0,3.9,2.11,3.9,4.16V89.5a16.23,16.23,0,0,0,.15,2.43Zm-.3-5.13c-2,0-4.15.32-4.15,2.21a1.58,1.58,0,0,0,1.68,1.71,2.46,2.46,0,0,0,2.39-1.65,2,2,0,0,0,.08-.57Z"/><path class="cls-1" d="M283.84,78.9v2.91h2.61v1.48h-2.61v5.29c0,1.26.36,2,1.38,2a3.4,3.4,0,0,0,1-.13l.08,1.49a4.87,4.87,0,0,1-1.68.26,2.65,2.65,0,0,1-2-.79,3.91,3.91,0,0,1-.73-2.67v-5.4h-1.54V81.81h1.54V79.4Z"/><path class="cls-1" d="M290.66,79a1.19,1.19,0,1,1-1.19-1.18A1.15,1.15,0,0,1,290.66,79Zm-2.16,13V81.81h1.94V91.93Z"/><path class="cls-1" d="M302.68,86.77c0,3.74-2.6,5.39-5.06,5.39-2.76,0-4.89-2-4.89-5.21,0-3.38,2.21-5.37,5-5.37S302.68,83.69,302.68,86.77Zm-8,.12c0,2.17,1.22,3.81,3,3.81s3-1.61,3-3.86c0-1.69-.83-3.8-2.95-3.8S294.72,85,294.72,86.89Z"/><path class="cls-1" d="M305,84.59c0-1.07,0-1.93-.08-2.78h1.72l.11,1.64h.05a3.73,3.73,0,0,1,3.32-1.87c1.45,0,3.57.89,3.57,4.32v6h-1.94V86.11c0-1.6-.61-2.93-2.28-2.93A2.57,2.57,0,0,0,307,85a3,3,0,0,0-.12.84v6.08h-2Z"/></g></g></svg>